<svg xmlns="http://www.w3.org/2000/svg" viewBox="0 0 125.97 34.79"><defs><style>.cls-1{fill:#223a5c;}</style></defs><g id="Layer_2" data-name="Layer 2"><g id="Capa_1" data-name="Capa 1"><path class="cls-1" d="M0,29.08H3.4v.48H.52v2h2.7V32H.52v2.17h3v.47H0Z"/><path class="cls-1" d="M6.59,31.73l-1.9-2.65H5.3l1.6,2.27,1.58-2.27h.63L7.22,31.73l2.07,2.92H8.64L6.88,32.13,5.12,34.65H4.5Z"/><path class="cls-1" d="M10.65,29.08h1.6a3.36,3.36,0,0,1,.61.07,1.64,1.64,0,0,1,.58.23,1.24,1.24,0,0,1,.43.45,1.37,1.37,0,0,1,.17.72,1.28,1.28,0,0,1-.5,1.11,1.69,1.69,0,0,1-.54.26,2.18,2.18,0,0,1-.63.09h-1.2v2.64h-.52Zm.52,2.46h1.17a2.12,2.12,0,0,0,.44-.05,1.14,1.14,0,0,0,.37-.17,1,1,0,0,0,.27-.3,1,1,0,0,0,.1-.47.91.91,0,0,0-.1-.45.84.84,0,0,0-.28-.31,1.17,1.17,0,0,0-.39-.18,1.61,1.61,0,0,0-.44-.05H11.17Z"/><path class="cls-1" d="M15.75,29.08h3.4v.48H16.27v2H19V32h-2.7v2.17h3v.47H15.75Z"/><path class="cls-1" d="M21,29.08h1.76a3.26,3.26,0,0,1,.41.05,2.5,2.5,0,0,1,.45.12,1.36,1.36,0,0,1,.41.26,1.28,1.28,0,0,1,.3.41,1.43,1.43,0,0,1,.11.62,1.47,1.47,0,0,1-.13.66,1.31,1.31,0,0,1-.35.42,1.83,1.83,0,0,1-.46.24A3.26,3.26,0,0,1,23,32l1.62,2.67h-.59L22.49,32h-1v2.64H21Zm.52,2.46h1.1a1.84,1.84,0,0,0,.67-.11.94.94,0,0,0,.39-.25.67.67,0,0,0,.19-.32.94.94,0,0,0,.06-.31,1,1,0,0,0-.06-.32.72.72,0,0,0-.19-.32,1.05,1.05,0,0,0-.39-.25,1.86,1.86,0,0,0-.67-.1h-1.1Z"/><path class="cls-1" d="M27.53,29.56h-1.9v-.48H30v.48H28.05v5.09h-.52Z"/><path class="cls-1" d="M31,31.87a3.13,3.13,0,0,1,.21-1.17,3,3,0,0,1,.59-.93,2.75,2.75,0,0,1,.91-.61,3.16,3.16,0,0,1,1.17-.22,3.2,3.2,0,0,1,1.17.22,2.7,2.7,0,0,1,.9.61,2.64,2.64,0,0,1,.59.93,2.94,2.94,0,0,1,.22,1.17A3,3,0,0,1,36.58,33,2.64,2.64,0,0,1,36,34a2.7,2.7,0,0,1-.9.61,3.2,3.2,0,0,1-1.17.21,3.16,3.16,0,0,1-1.17-.21,2.75,2.75,0,0,1-.91-.61,3,3,0,0,1-.59-.93A3.2,3.2,0,0,1,31,31.87Zm.52,0a2.73,2.73,0,0,0,.17,1,2.2,2.2,0,0,0,.47.78,2.07,2.07,0,0,0,.74.52,2.62,2.62,0,0,0,2,0,2.07,2.07,0,0,0,.74-.52,2.2,2.2,0,0,0,.47-.78,2.73,2.73,0,0,0,.17-1,2.78,2.78,0,0,0-.17-1,2.2,2.2,0,0,0-1.21-1.3,2.62,2.62,0,0,0-2,0,2.2,2.2,0,0,0-1.21,1.3A2.78,2.78,0,0,0,31.56,31.87Z"/><path class="cls-1" d="M38.7,33.62a1.35,1.35,0,0,0,.53.53,1.64,1.64,0,0,0,.74.17,1.53,1.53,0,0,0,.49-.08,1.11,1.11,0,0,0,.4-.22,1.13,1.13,0,0,0,.27-.34,1.1,1.1,0,0,0,.09-.45.85.85,0,0,0-.12-.48,1,1,0,0,0-.32-.31,2.78,2.78,0,0,0-.46-.21l-.53-.17-.53-.2a1.7,1.7,0,0,1-.46-.29,1.32,1.32,0,0,1-.32-.44,1.47,1.47,0,0,1-.13-.66,1.4,1.4,0,0,1,.15-.66,1.53,1.53,0,0,1,.39-.48,1.92,1.92,0,0,1,.57-.29,2.2,2.2,0,0,1,.68-.1,2.32,2.32,0,0,1,.84.16,1.67,1.67,0,0,1,.68.54l-.45.32a1.37,1.37,0,0,0-.46-.41,1.39,1.39,0,0,0-.63-.14,2,2,0,0,0-.48.07,1.2,1.2,0,0,0-.39.2A.87.87,0,0,0,39,30a1.12,1.12,0,0,0-.1.47.86.86,0,0,0,.22.64,1.33,1.33,0,0,0,.53.35,5.58,5.58,0,0,0,.69.23A3.52,3.52,0,0,1,41,32a1.56,1.56,0,0,1,.53.46,1.4,1.4,0,0,1,.21.82,1.46,1.46,0,0,1-.14.67,1.51,1.51,0,0,1-.38.49,1.83,1.83,0,0,1-.55.3,2.07,2.07,0,0,1-.66.1,2.59,2.59,0,0,1-1-.19,1.91,1.91,0,0,1-.8-.65Z"/><path class="cls-1" d="M50.73,33.78a2.43,2.43,0,0,1-.93.78,2.87,2.87,0,0,1-1.14.23,3.2,3.2,0,0,1-1.17-.21,2.7,2.7,0,0,1-.9-.61A2.64,2.64,0,0,1,46,33a3,3,0,0,1-.22-1.17A2.94,2.94,0,0,1,46,30.7a2.64,2.64,0,0,1,.59-.93,2.7,2.7,0,0,1,.9-.61,3.2,3.2,0,0,1,1.17-.22,2.86,2.86,0,0,1,1.06.2,2.19,2.19,0,0,1,.86.67l-.42.36a1.69,1.69,0,0,0-.67-.58,2,2,0,0,0-.83-.18,2.55,2.55,0,0,0-1,.19,2.2,2.2,0,0,0-.74.52,2.36,2.36,0,0,0-.47.78,2.78,2.78,0,0,0-.17,1,2.73,2.73,0,0,0,.17,1,2.36,2.36,0,0,0,.47.78,2.07,2.07,0,0,0,.74.52,2.38,2.38,0,0,0,1,.19,2.28,2.28,0,0,0,.44,0,2.69,2.69,0,0,0,.45-.16,2.07,2.07,0,0,0,.41-.27,1.38,1.38,0,0,0,.34-.38Z"/><path class="cls-1" d="M56.23,32.52a3.49,3.49,0,0,1-.11.86,1.84,1.84,0,0,1-.34.72,1.65,1.65,0,0,1-.63.5,2.5,2.5,0,0,1-1.91,0,1.65,1.65,0,0,1-.63-.5,2,2,0,0,1-.34-.72,3.49,3.49,0,0,1-.1-.86V29.08h.52v3.31a4.7,4.7,0,0,0,.05.63,1.89,1.89,0,0,0,.22.63,1.3,1.3,0,0,0,.45.48,1.72,1.72,0,0,0,1.57,0,1.25,1.25,0,0,0,.46-.48,2.13,2.13,0,0,0,.21-.63,3.52,3.52,0,0,0,.06-.63V29.08h.52Z"/><path class="cls-1" d="M58.24,29.08h.52v5.57h-.52Z"/><path class="cls-1" d="M60.8,29.08h1.72a3.67,3.67,0,0,1,1.23.18,2.9,2.9,0,0,1,.84.45,2.26,2.26,0,0,1,.52.61,3,3,0,0,1,.29.64,2.62,2.62,0,0,1,.11.56,2.66,2.66,0,0,1,0,.35,2.83,2.83,0,0,1,0,.35,2.54,2.54,0,0,1-.11.55,2.77,2.77,0,0,1-.29.64,2.12,2.12,0,0,1-.52.61,2.68,2.68,0,0,1-.84.45,3.67,3.67,0,0,1-1.23.18H60.8Zm.52,5.1h1.07a3.77,3.77,0,0,0,1-.14,2.24,2.24,0,0,0,.83-.42,1.9,1.9,0,0,0,.56-.72,2.34,2.34,0,0,0,.21-1,2.38,2.38,0,0,0-.21-1,1.9,1.9,0,0,0-.56-.72,2.24,2.24,0,0,0-.83-.42,3.77,3.77,0,0,0-1-.13H61.32Z"/><path class="cls-1" d="M69,29.08h.54l2.34,5.57h-.58l-.6-1.48h-3l-.63,1.48h-.55Zm.25.57-1.3,3.05H70.5Z"/><path class="cls-1" d="M73.26,29.08h.67L77.32,34h0V29.08h.52v5.57h-.67L73.8,29.78h0v4.87h-.52Z"/><path class="cls-1" d="M79.9,29.08h1.72a3.71,3.71,0,0,1,1.23.18,3,3,0,0,1,.84.45,2.45,2.45,0,0,1,.52.61,3,3,0,0,1,.29.64,3.44,3.44,0,0,1,.11.56,2.66,2.66,0,0,1,0,.35,2.83,2.83,0,0,1,0,.35,3.33,3.33,0,0,1-.11.55,2.77,2.77,0,0,1-.29.64,2.28,2.28,0,0,1-.52.61,2.79,2.79,0,0,1-.84.45,3.71,3.71,0,0,1-1.23.18H79.9Zm.52,5.1h1.07a3.82,3.82,0,0,0,1-.14,2.24,2.24,0,0,0,.83-.42,2,2,0,0,0,.56-.72,2.34,2.34,0,0,0,.2-1,2.38,2.38,0,0,0-.2-1,2,2,0,0,0-.56-.72,2.24,2.24,0,0,0-.83-.42,3.83,3.83,0,0,0-1-.13H80.42Z"/><path class="cls-1" d="M86,31.87a3.13,3.13,0,0,1,.21-1.17,2.79,2.79,0,0,1,.59-.93,2.65,2.65,0,0,1,.91-.61,3.19,3.19,0,0,1,2.33,0,2.75,2.75,0,0,1,.91.61,2.79,2.79,0,0,1,.59.93,3.13,3.13,0,0,1,.21,1.17A3.2,3.2,0,0,1,91.57,33,2.79,2.79,0,0,1,91,34a2.75,2.75,0,0,1-.91.61,3.34,3.34,0,0,1-2.33,0,2.65,2.65,0,0,1-.91-.61,2.79,2.79,0,0,1-.59-.93A3.2,3.2,0,0,1,86,31.87Zm.51,0a2.73,2.73,0,0,0,.17,1,2.36,2.36,0,0,0,.47.78,2.16,2.16,0,0,0,.74.52,2.62,2.62,0,0,0,2,0,2.07,2.07,0,0,0,.74-.52,2.22,2.22,0,0,0,.48-.78,2.73,2.73,0,0,0,.16-1,2.78,2.78,0,0,0-.16-1,2.22,2.22,0,0,0-.48-.78,2.2,2.2,0,0,0-.74-.52,2.62,2.62,0,0,0-2,0,2.3,2.3,0,0,0-.74.52,2.36,2.36,0,0,0-.47.78A2.78,2.78,0,0,0,86.54,31.87Z"/><path class="cls-1" d="M97.4,29.56H95.5v-.48h4.32v.48h-1.9v5.09H97.4Z"/><path class="cls-1" d="M105.23,32.52a3.49,3.49,0,0,1-.11.86,1.84,1.84,0,0,1-.34.72,1.65,1.65,0,0,1-.63.5,2.5,2.5,0,0,1-1.91,0,1.65,1.65,0,0,1-.63-.5,2,2,0,0,1-.34-.72,3.49,3.49,0,0,1-.1-.86V29.08h.52v3.31a4.7,4.7,0,0,0,0,.63,1.89,1.89,0,0,0,.22.63,1.3,1.3,0,0,0,.45.48,1.72,1.72,0,0,0,1.57,0,1.25,1.25,0,0,0,.46-.48,2.13,2.13,0,0,0,.21-.63,3.52,3.52,0,0,0,.06-.63V29.08h.52Z"/><path class="cls-1" d="M109.87,29.08h1.61a3.46,3.46,0,0,1,.61.07,1.72,1.72,0,0,1,.58.23,1.33,1.33,0,0,1,.43.45,1.47,1.47,0,0,1,.17.72,1.49,1.49,0,0,1-.14.66,1.24,1.24,0,0,1-.37.45,1.54,1.54,0,0,1-.53.26,2.25,2.25,0,0,1-.64.09h-1.2v2.64h-.52Zm.52,2.46h1.18a2,2,0,0,0,.43-.05,1.19,1.19,0,0,0,.38-.17,1,1,0,0,0,.27-.3,1,1,0,0,0,.1-.47.93.93,0,0,0-.38-.76,1.17,1.17,0,0,0-.39-.18,1.65,1.65,0,0,0-.44-.05h-1.15Z"/><path class="cls-1" d="M115,29.08h.52v5.57H115Z"/><path class="cls-1" d="M117.61,29.08H121v.48h-2.88v2h2.7V32h-2.7v2.17h3v.47h-3.53Z"/><path class="cls-1" d="M122.86,29.08h.52v5.1H126v.47h-3.11Z"/><path class="cls-1" d="M14.28,21.54v.65H0V.43H2.91V21.54Z"/><path class="cls-1" d="M29.21,4,25,14.1H33l.31.64H24.68l-3.14,7.45h-.88L28.74,3.35l-1.32-3h3.43l9.52,21.82H37.26Z"/><path class="cls-1" d="M64.68,17a4.59,4.59,0,0,1-.82,2.2A6.56,6.56,0,0,1,62,21a9.63,9.63,0,0,1-2.64,1.15,12.15,12.15,0,0,1-3.18.41,9.86,9.86,0,0,1-8.49-4.32l1.84-1c1.2,1.79,3.68,4.46,6.65,4.46a8.28,8.28,0,0,0,4.7-1.16,3.73,3.73,0,0,0,1.82-3,3.29,3.29,0,0,0-.17-1.44A2.55,2.55,0,0,0,61.6,15a8.43,8.43,0,0,0-2-1c-.87-.32-2-.66-3.38-1a26.34,26.34,0,0,1-4.08-1.39A9.94,9.94,0,0,1,49.49,9.9a5.14,5.14,0,0,1-1.37-2,5.22,5.22,0,0,1-.26-2.28,4.63,4.63,0,0,1,.77-2.25,6.54,6.54,0,0,1,1.76-1.8A8.38,8.38,0,0,1,52.93.41,11.57,11.57,0,0,1,56,0a12.25,12.25,0,0,1,4.52.87A9,9,0,0,1,64,3.49l-1.7,1a13.58,13.58,0,0,0-2.79-2.74A6,6,0,0,0,56,.83a8,8,0,0,0-2.65.42,7.22,7.22,0,0,0-2,1.09,4.06,4.06,0,0,0-1.24,1.5,2.68,2.68,0,0,0-.25,1.67,2.91,2.91,0,0,0,.39,1,3.45,3.45,0,0,0,1,1,10.37,10.37,0,0,0,2.07,1,28.05,28.05,0,0,0,3.54,1.09A22.4,22.4,0,0,1,60.68,11a9.11,9.11,0,0,1,2.49,1.64,5,5,0,0,1,1.28,2A5.92,5.92,0,0,1,64.68,17Z"/><path class="cls-1" d="M73,.43h2.91V22.19H73Zm18,21.76h-4l-11-10.88L87,.43h1L78.75,9.87Z"/><path class="cls-1" d="M100.84.43V22.19H97.92V.43Z"/><path class="cls-1" d="M126,.43V22.19h-.59l-16-20.6v20.6h-.74V.43h3.67l12.91,16.72V.43Z"/></g></g></svg>